<svg width="64" height="64" viewBox="0 0 369.66666666666663 144.5123934416274" class="css-1j8o68f"><defs id="SvgjsDefs1182"></defs><g id="SvgjsG1183" featurekey="symbolFeature-0" transform="matrix(0.5035247191329958,0,0,0.5035247191329958,-34.13897749385261,-3.0207420667888782)" fill="#8dc6ff"><g xmlns="http://www.w3.org/2000/svg"><defs><line id="a" x1="294" y1="7" x2="294" y2="293"></line></defs><clipPath><use xmlns:xlink="http://www.w3.org/1999/xlink" xlink:href="#a" style="" overflow="visible"></use></clipPath></g><g xmlns="http://www.w3.org/2000/svg"><path d="M151,293c-45.8,0.2-83.1-36.8-83.1-82.5c0-18.6,6.3-36.6,17.8-51.2l2.8-3.2c0.3-0.3,0.7-0.7,1-1l81.5-90.4   c12.8,11.5,13.9,31.2,2.4,43.9l-61.5,68.2c-8.2,9.3-12.7,21.3-12.7,33.7c0,28.5,23.5,51.8,52.2,51.3c28.2-0.5,50.7-23.9,50.7-52.1   v-21.4c0-17.2,13.9-31.1,31.2-31.1v52.3C233.2,255.2,196.6,292.8,151,293z"></path><path d="M215.4,139.6v0.2l-85.1,94.4c-12.8-11.5-13.9-31.2-2.4-43.9l61.5-68.2c8.2-9.3,12.7-21.4,12.7-33.7   c0-28.5-23.5-51.8-52.2-51.3C121.5,37.5,99,61,99,89.2v21.4c0,17.2-13.9,31.1-31.2,31.1V89.4C67.9,43.9,104.5,6.2,150,6   c45.8-0.2,83.1,36.8,83.1,82.5C233.2,107.1,226.9,125.1,215.4,139.6z"></path></g></g><g id="SvgjsG1184" featurekey="nameFeature-0" transform="matrix(1.392660598320662,0,0,1.392660598320662,100.54891968449022,31.6223110449943)" fill="#22313f"><path d="M28.32 20.96 c0 0.56 -0.04 2.36 -0.68 4.04 c-0.36 0.96 -1.8 3.92 -4.92 5.08 c-1.68 0.64 -3.36 0.72 -5.12 0.72 l-6.88 0 l0 9.2 l-8.96 0 l0 -28.24 l16.12 0 c2.76 0 5.32 0.2 7.52 2.12 c2.84 2.44 2.92 5.84 2.92 7.08 z M19.44 21.24 c0 -0.32 0 -1.16 -0.44 -1.96 c-0.88 -1.6 -2.76 -1.6 -3.24 -1.6 l-5.04 0 l0 7.2 l5.08 0 c0.12 0 1 -0.04 1.6 -0.24 c0.8 -0.28 2.04 -1.16 2.04 -3.4 z M44.760000000000005 25.8 c-0.4 -0.04 -0.8 -0.08 -1.2 -0.08 c-0.64 -0.04 -4.16 -0.24 -5.16 2.56 c-0.24 0.68 -0.24 1.24 -0.24 1.96 l0 9.76 l-8.2 0 l0 -20.72 l7.92 0 l0 1.8 c0.4 -0.36 0.68 -0.6 1.12 -0.88 c1.84 -1.28 3.6 -1.36 5.76 -1.36 l0 6.96 z M69.96000000000001 29.68 c0 1.12 -0.2 4.68 -2.68 7.44 c-1.44 1.6 -4.52 3.68 -9.68 3.68 c-1.2 0 -4.92 -0.04 -7.96 -2.44 c-1.52 -1.2 -3.84 -3.84 -3.84 -8.56 c0 -2.88 0.88 -5.72 2.84 -7.84 c1.4 -1.52 4.36 -3.6 9.4 -3.56 c1.08 0 5.36 0.12 8.44 2.8 c2.32 2.04 3.48 5.4 3.48 8.48 z M61.64 29.48 c0 -3.12 -1 -4.56 -2.48 -5.08 c-0.6 -0.2 -1.12 -0.2 -1.36 -0.2 c-1.44 0.04 -2.24 0.76 -2.6 1.16 c-0.64 0.68 -1.2 2.08 -1.2 4.2 c0 2.04 0.52 3.44 1.04 4.16 c0.32 0.44 0.76 0.8 1.24 1 c0.24 0.12 0.84 0.28 1.56 0.28 c0.96 0 1.84 -0.28 2.48 -0.92 c0.72 -0.72 1.32 -2.28 1.32 -4.6 z M109.04 40 l-8.24 0 l0 -10.84 c0 -0.8 0.24 -3.6 -2.88 -3.6 c-0.64 0 -2.36 0.16 -2.88 2 c-0.12 0.48 -0.12 0.88 -0.12 1.4 l0 11.04 l-8.24 0 l0 -11.2 c0 -0.48 0 -0.8 -0.12 -1.28 c-0.48 -1.76 -2.12 -1.96 -2.76 -1.96 c-0.56 0 -2.28 0.2 -2.84 1.92 c-0.08 0.24 -0.2 0.64 -0.2 1.28 l0 11.24 l-8.28 0 l0 -20.72 l7.96 0 l0 2.96 c0.48 -0.84 0.8 -1.24 1.12 -1.56 c0.84 -0.8 2.56 -1.88 5.4 -1.88 c0.72 0 4.16 0 6.16 2.24 c0.32 0.32 0.6 0.8 1.04 1.6 c0.36 -0.84 0.8 -1.28 1.08 -1.56 c0.96 -1 2.68 -2.32 6.04 -2.28 c0.52 0 1.48 -0.04 2.72 0.32 c1.04 0.28 3.64 1.16 4.64 4.2 c0.4 1.2 0.4 2.32 0.4 3.6 l0 13.08 z M135.08 29.759999999999998 c0 5.8 -2.68 10.76 -9.12 10.76 c-0.6 0 -2.76 0 -4.48 -1.16 c-0.28 -0.2 -0.44 -0.36 -0.88 -0.76 l0 8.92 l-8.08 0 l0 -28.24 l8.04 0 l0 1.6 c0.4 -0.48 0.56 -0.64 0.8 -0.8 c0.76 -0.6 2.32 -1.36 4.68 -1.36 c6.48 0 9.04 5.28 9.04 11.04 z M126.96000000000001 29.84 c0 -1.28 -0.08 -2.92 -0.88 -4 c-0.72 -0.96 -1.8 -1.12 -2.2 -1.12 c-0.32 0 -0.96 0.04 -1.6 0.4 c-1.68 0.92 -1.76 3 -1.76 4.64 c0 1.6 0.12 3.72 1.72 4.6 c0.64 0.36 1.16 0.36 1.44 0.36 c0.36 0 0.92 -0.04 1.6 -0.44 c1.48 -0.92 1.68 -2.92 1.68 -4.44 z M150.6 39.84 c-0.68 0.08 -2.96 0.44 -5.2 0.44 c-4.36 0 -6 -1.68 -6.6 -3.76 c-0.2 -0.76 -0.24 -1.52 -0.24 -2.24 l0.12 -10.04 l-2.84 0 l0 -4.48 l2.88 0 l0.08 -6.52 l8.28 0 l-0.04 6.52 l3.52 0 l0 4.48 l-3.6 0 l-0.12 7.96 c0 0.84 0.12 2.16 2.28 2.16 c0.48 0 0.68 0 1.48 -0.16 l0 5.64 z M182.32 40 l-9.6 0 l-1.24 -3.96 l-9.84 0 l-1.24 3.96 l-9.6 0 l10.8 -28.24 l10.16 0 z M169.64000000000001 29.759999999999998 l-3 -9.96 l-3.08 9.96 l6.08 0 z M193.24 40 l-8.96 0 l0 -28.24 l8.96 0 l0 28.24 z"></path></g></svg>